<svg width="400" height="400" viewBox="0 0 400 400" fill="none" xmlns="http://www.w3.org/2000/svg">
<rect width="400" height="400" fill="white"/>
<path d="M130 63.955C135.523 63.955 140 68.4321 140 73.955C140 78.0552 137.531 81.5766 134 83.12V93.955H158C165.732 93.955 172 100.223 172 107.955V143.955C172 151.687 165.732 157.955 158 157.955H102C94.268 157.955 88 151.687 88 143.955V107.955C88 100.223 94.268 93.955 102 93.955H126V83.12C122.469 81.5766 120 78.0552 120 73.955C120 68.4321 124.477 63.955 130 63.955ZM84 138.955C79.0294 138.955 75 134.926 75 129.955V119.955C75 114.984 79.0294 110.955 84 110.955V138.955ZM176 110.955C180.971 110.955 185 114.984 185 119.955V129.955C185 134.926 180.971 138.955 176 138.955V110.955ZM113 112.955C108.029 112.955 104 116.984 104 121.955C104 126.926 108.029 130.955 113 130.955C117.971 130.955 122 126.926 122 121.955C122 116.984 117.971 112.955 113 112.955ZM147 112.955C142.029 112.955 138 116.984 138 121.955C138 126.926 142.029 130.955 147 130.955C151.971 130.955 156 126.926 156 121.955C156 116.984 151.971 112.955 147 112.955Z" fill="#00334E"/>
<path d="M220 131.955H227.5C227.776 131.955 228 132.179 228 132.455V164.455C228 164.731 227.776 164.955 227.5 164.955H208.5C208.224 164.955 208 164.731 208 164.455V132.455C208 132.179 208.224 131.955 208.5 131.955H216V123.955H220V131.955ZM250 117.955H257.5C257.776 117.955 258 118.179 258 118.455V151.455C258 151.731 257.776 151.955 257.5 151.955H250V164.955H246V151.955H238.5C238.224 151.955 238 151.731 238 151.455V118.455C238 118.179 238.224 117.955 238.5 117.955H246V109.955H250V117.955ZM287.5 86.955C287.776 86.955 288 87.1789 288 87.455V164.455C288 164.731 287.776 164.955 287.5 164.955H268.5C268.224 164.955 268 164.731 268 164.455V87.455C268 87.1789 268.224 86.955 268.5 86.955H287.5ZM280.68 58.0175C281.051 57.9179 281.392 58.259 281.292 58.6308L276.137 77.8701C276.037 78.2417 275.573 78.3664 275.301 78.0947L270.878 73.6718L241.798 102.753C240.568 103.982 238.599 104.021 237.323 102.868L237.202 102.753L227.46 93.0107L200.758 118.793C199.467 120.04 197.409 120.004 196.162 118.713C194.915 117.422 194.951 115.364 196.242 114.117L225.242 86.1171L225.364 86.0048C226.644 84.8878 228.584 84.9429 229.798 86.1572L239.5 95.8593L266.282 69.0761L261.216 64.0097C260.944 63.7375 261.069 63.2724 261.44 63.1728L280.68 58.0175Z" fill="#007C54"/>
<path d="M73.9326 177.189V226.955H61.9697V177.189H73.9326ZM88.6982 177.189V186.452H47.5801V177.189H88.6982ZM93.791 177.189H113.171C116.953 177.189 120.246 177.759 123.049 178.898C125.852 180.038 128.005 181.724 129.509 183.957C131.035 186.19 131.799 188.947 131.799 192.228C131.799 195.077 131.354 197.458 130.466 199.372C129.6 201.286 128.381 202.87 126.809 204.123C125.259 205.353 123.448 206.367 121.374 207.165L117.478 209.387H101.276L101.208 200.124H113.137C114.641 200.124 115.882 199.85 116.862 199.304C117.842 198.757 118.583 197.982 119.084 196.979C119.585 195.954 119.836 194.735 119.836 193.322C119.836 191.887 119.574 190.656 119.05 189.631C118.549 188.605 117.808 187.819 116.828 187.272C115.848 186.725 114.629 186.452 113.171 186.452H105.754V226.955H93.791V177.189ZM120.622 226.955L109.787 204.943L122.468 204.875L133.439 226.442V226.955H120.622ZM159.895 187.648L147.966 226.955H135.114L153.161 177.189H161.33L159.895 187.648ZM169.704 226.955L157.775 187.648L156.203 177.189H164.44L182.59 226.955H169.704ZM169.294 208.395V217.658H144.069V208.395H169.294ZM202.277 226.955H191.374L191.442 217.726H202.277C204.51 217.726 206.39 217.191 207.917 216.12C209.466 215.049 210.64 213.443 211.438 211.301C212.258 209.159 212.668 206.504 212.668 203.337V200.773C212.668 198.381 212.44 196.296 211.984 194.518C211.551 192.718 210.891 191.226 210.002 190.041C209.113 188.856 207.997 187.967 206.652 187.375C205.331 186.76 203.815 186.452 202.106 186.452H191.169V177.189H202.106C205.433 177.189 208.487 177.759 211.267 178.898C214.047 180.038 216.451 181.655 218.479 183.752C220.529 185.848 222.113 188.343 223.229 191.237C224.346 194.108 224.904 197.31 224.904 200.842V203.337C224.904 206.846 224.346 210.047 223.229 212.941C222.113 215.835 220.541 218.33 218.513 220.427C216.485 222.5 214.092 224.107 211.335 225.246C208.578 226.385 205.559 226.955 202.277 226.955ZM198.244 177.189V226.955H186.281V177.189H198.244ZM264.997 217.726V226.955H238.85V217.726H264.997ZM243.088 177.189V226.955H231.125V177.189H243.088ZM261.613 196.945V205.866H238.85V196.945H261.613ZM265.1 177.189V186.452H238.85V177.189H265.1ZM269.885 177.189H289.265C293.047 177.189 296.34 177.759 299.143 178.898C301.945 180.038 304.099 181.724 305.603 183.957C307.129 186.19 307.893 188.947 307.893 192.228C307.893 195.077 307.448 197.458 306.56 199.372C305.694 201.286 304.475 202.87 302.902 204.123C301.353 205.353 299.541 206.367 297.468 207.165L293.571 209.387H277.37L277.302 200.124H289.23C290.734 200.124 291.976 199.85 292.956 199.304C293.936 198.757 294.676 197.982 295.178 196.979C295.679 195.954 295.93 194.735 295.93 193.322C295.93 191.887 295.668 190.656 295.144 189.631C294.642 188.605 293.902 187.819 292.922 187.272C291.942 186.725 290.723 186.452 289.265 186.452H281.848V226.955H269.885V177.189ZM296.716 226.955L285.881 204.943L298.562 204.875L309.533 226.442V226.955H296.716ZM340.329 213.727C340.329 212.953 340.215 212.258 339.987 211.642C339.759 211.004 339.349 210.412 338.757 209.865C338.164 209.318 337.299 208.771 336.159 208.224C335.043 207.655 333.573 207.062 331.75 206.447C329.585 205.718 327.5 204.898 325.495 203.986C323.49 203.052 321.701 201.97 320.129 200.739C318.557 199.486 317.303 198.028 316.369 196.364C315.458 194.678 315.002 192.718 315.002 190.485C315.002 188.343 315.469 186.418 316.403 184.709C317.36 182.977 318.682 181.507 320.368 180.3C322.077 179.069 324.082 178.135 326.384 177.497C328.685 176.836 331.203 176.506 333.938 176.506C337.538 176.506 340.716 177.144 343.474 178.42C346.231 179.673 348.384 181.462 349.934 183.786C351.506 186.087 352.292 188.81 352.292 191.955H340.397C340.397 190.702 340.147 189.597 339.646 188.64C339.144 187.682 338.392 186.931 337.39 186.384C336.41 185.837 335.168 185.563 333.664 185.563C332.183 185.563 330.941 185.791 329.938 186.247C328.959 186.703 328.207 187.318 327.683 188.093C327.181 188.845 326.931 189.676 326.931 190.588C326.931 191.34 327.136 192.023 327.546 192.639C327.979 193.231 328.571 193.789 329.323 194.313C330.098 194.837 331.032 195.339 332.126 195.817C333.243 196.296 334.484 196.763 335.852 197.219C338.472 198.062 340.796 199.007 342.824 200.056C344.875 201.081 346.595 202.254 347.985 203.576C349.398 204.875 350.469 206.356 351.198 208.019C351.927 209.683 352.292 211.563 352.292 213.659C352.292 215.892 351.859 217.875 350.993 219.606C350.15 221.338 348.931 222.808 347.336 224.016C345.741 225.2 343.827 226.1 341.594 226.716C339.361 227.331 336.877 227.639 334.143 227.639C331.613 227.639 329.118 227.32 326.657 226.682C324.219 226.021 322.009 225.018 320.026 223.674C318.044 222.307 316.46 220.563 315.275 218.444C314.09 216.302 313.498 213.762 313.498 210.822H325.529C325.529 212.28 325.712 213.511 326.076 214.514C326.464 215.516 327.022 216.325 327.751 216.94C328.48 217.533 329.369 217.966 330.417 218.239C331.488 218.49 332.73 218.615 334.143 218.615C335.624 218.615 336.809 218.399 337.697 217.966C338.609 217.51 339.27 216.918 339.68 216.188C340.113 215.436 340.329 214.616 340.329 213.727Z" fill="#00334E"/>
<path d="M162.085 261.945V271.174H136.997V261.945H162.085ZM140.962 242.189V291.955H128.999V242.189H140.962ZM170.151 242.189V291.955H158.188V242.189H170.151ZM204.263 242.189H216.26V274.797C216.26 278.67 215.451 281.94 213.833 284.606C212.238 287.272 209.993 289.278 207.1 290.622C204.229 291.966 200.845 292.639 196.948 292.639C193.097 292.639 189.714 291.966 186.797 290.622C183.88 289.278 181.602 287.272 179.961 284.606C178.32 281.94 177.5 278.67 177.5 274.797V242.189H189.531V274.797C189.531 276.848 189.816 278.511 190.386 279.787C190.955 281.063 191.787 281.986 192.881 282.556C193.997 283.125 195.353 283.41 196.948 283.41C198.543 283.41 199.888 283.125 200.981 282.556C202.075 281.986 202.896 281.063 203.442 279.787C203.989 278.511 204.263 276.848 204.263 274.797V242.189ZM243.843 270.798H231.23L231.162 262.936H241.382C243.205 262.936 244.663 262.731 245.757 262.321C246.851 261.888 247.648 261.262 248.149 260.441C248.651 259.621 248.901 258.596 248.901 257.365C248.901 255.952 248.639 254.813 248.115 253.947C247.614 253.081 246.805 252.455 245.688 252.067C244.595 251.657 243.182 251.452 241.45 251.452H235.708V291.955H223.745V242.189H241.45C244.504 242.189 247.215 242.474 249.585 243.044C251.978 243.591 254.017 244.434 255.703 245.573C257.389 246.712 258.665 248.148 259.531 249.88C260.42 251.589 260.864 253.605 260.864 255.93C260.864 257.958 260.431 259.86 259.565 261.638C258.722 263.415 257.298 264.862 255.293 265.978C253.288 267.072 250.565 267.642 247.124 267.687L243.843 270.798ZM243.364 291.955H228.325L232.393 282.726H243.364C244.959 282.726 246.235 282.476 247.192 281.974C248.172 281.45 248.879 280.767 249.312 279.924C249.744 279.058 249.961 278.101 249.961 277.053C249.961 275.777 249.756 274.671 249.346 273.737C248.936 272.803 248.286 272.085 247.397 271.584C246.509 271.06 245.324 270.798 243.843 270.798H233.862L233.931 262.936H245.825L248.628 266.081C251.932 265.944 254.541 266.411 256.455 267.482C258.392 268.553 259.771 269.966 260.591 271.721C261.434 273.475 261.855 275.309 261.855 277.224C261.855 280.482 261.16 283.205 259.771 285.392C258.403 287.58 256.341 289.221 253.584 290.314C250.827 291.408 247.42 291.955 243.364 291.955Z" fill="#00334E"/>
<path d="M167.714 325.955C169.529 325.955 171 327.426 171 329.241V338.384C171 340.198 169.529 341.67 167.714 341.67H149.286C147.471 341.67 146 340.198 146 338.384V329.241C146 327.426 147.471 325.955 149.286 325.955H167.714ZM156.715 337.523L163.143 333.812L156.715 330.1V337.523Z" fill="#CD201F"/>
<path d="M183.391 333.732C183.375 334.146 183.314 334.553 183.209 334.951C183.107 335.349 182.951 335.709 182.74 336.029C182.529 336.349 182.262 336.605 181.938 336.797C181.617 336.984 181.23 337.078 180.777 337.078C180.531 337.078 180.307 337.035 180.104 336.949C179.904 336.863 179.73 336.74 179.582 336.58C179.438 336.42 179.328 336.226 179.254 336C179.18 335.773 179.15 335.519 179.166 335.238L179.459 331.799H180.771L180.484 335.238C180.465 335.402 180.467 335.537 180.49 335.642C180.518 335.748 180.559 335.83 180.613 335.889C180.668 335.947 180.732 335.99 180.807 336.017C180.881 336.041 180.957 336.053 181.035 336.053C181.199 336.053 181.35 335.996 181.486 335.883C181.627 335.769 181.75 335.611 181.855 335.408C181.961 335.201 182.045 334.961 182.107 334.687C182.17 334.41 182.205 334.111 182.213 333.791C182.236 333.303 182.211 332.849 182.137 332.432C182.062 332.01 181.938 331.631 181.762 331.295C181.586 330.959 181.359 330.674 181.082 330.439C180.809 330.201 180.48 330.019 180.098 329.894C179.719 329.766 179.283 329.701 178.791 329.701C178.322 329.701 177.893 329.775 177.502 329.924C177.111 330.072 176.76 330.285 176.447 330.562C176.139 330.836 175.873 331.162 175.65 331.541C175.432 331.92 175.258 332.34 175.129 332.801C175.004 333.262 174.93 333.752 174.906 334.271C174.879 334.834 174.908 335.342 174.994 335.795C175.084 336.244 175.225 336.637 175.416 336.973C175.607 337.312 175.848 337.594 176.137 337.816C176.426 338.043 176.762 338.213 177.145 338.326C177.527 338.439 177.951 338.496 178.416 338.496C178.752 338.496 179.094 338.459 179.441 338.385C179.789 338.31 180.086 338.221 180.332 338.115L180.549 339.088C180.279 339.264 179.941 339.394 179.535 339.48C179.133 339.566 178.752 339.609 178.393 339.609C177.768 339.609 177.197 339.537 176.682 339.392C176.17 339.248 175.719 339.031 175.328 338.742C174.938 338.453 174.611 338.094 174.35 337.664C174.088 337.238 173.895 336.742 173.77 336.176C173.648 335.609 173.602 334.974 173.629 334.271C173.656 333.631 173.754 333.029 173.922 332.467C174.094 331.9 174.328 331.387 174.625 330.926C174.926 330.465 175.283 330.068 175.697 329.736C176.115 329.4 176.586 329.142 177.109 328.963C177.633 328.783 178.201 328.693 178.814 328.693C179.424 328.693 179.975 328.771 180.467 328.928C180.963 329.084 181.398 329.31 181.773 329.607C182.148 329.9 182.461 330.254 182.711 330.668C182.961 331.082 183.143 331.547 183.256 332.062C183.369 332.578 183.414 333.135 183.391 333.732ZM177.613 334.4C177.594 334.65 177.594 334.873 177.613 335.068C177.633 335.26 177.672 335.42 177.73 335.549C177.793 335.678 177.873 335.775 177.971 335.842C178.068 335.908 178.184 335.941 178.316 335.941C178.379 335.941 178.451 335.926 178.533 335.894C178.619 335.859 178.705 335.799 178.791 335.713C178.881 335.623 178.967 335.498 179.049 335.338C179.135 335.174 179.207 334.961 179.266 334.699L179.811 335.367C179.721 335.648 179.611 335.894 179.482 336.105C179.357 336.316 179.213 336.492 179.049 336.633C178.889 336.773 178.709 336.879 178.51 336.949C178.311 337.019 178.094 337.055 177.859 337.055C177.578 337.055 177.324 336.992 177.098 336.867C176.871 336.742 176.68 336.564 176.523 336.334C176.371 336.099 176.26 335.82 176.189 335.496C176.123 335.168 176.109 334.803 176.148 334.4C176.195 334.006 176.275 333.641 176.389 333.305C176.502 332.969 176.643 332.67 176.811 332.408C176.982 332.142 177.178 331.916 177.396 331.728C177.619 331.541 177.859 331.398 178.117 331.301C178.379 331.203 178.656 331.154 178.949 331.154C179.406 331.154 179.766 331.221 180.027 331.353C180.289 331.482 180.537 331.631 180.771 331.799L180.133 332.713C180.02 332.611 179.873 332.514 179.693 332.42C179.518 332.322 179.307 332.273 179.061 332.273C178.83 332.273 178.631 332.32 178.463 332.414C178.299 332.504 178.158 332.641 178.041 332.824C177.928 333.004 177.836 333.226 177.766 333.492C177.695 333.754 177.645 334.057 177.613 334.4ZM187.727 330.615V331.986H183.941V330.615H187.727ZM184.727 329.039H186.701V334.887C186.701 335.055 186.719 335.185 186.754 335.279C186.793 335.369 186.859 335.433 186.953 335.473C187.047 335.508 187.174 335.525 187.334 335.525C187.443 335.525 187.535 335.523 187.609 335.519C187.684 335.512 187.752 335.502 187.814 335.49V336.902C187.65 336.957 187.477 336.998 187.293 337.025C187.109 337.057 186.916 337.072 186.713 337.072C186.295 337.072 185.938 337.006 185.641 336.873C185.344 336.74 185.117 336.531 184.961 336.246C184.805 335.961 184.727 335.59 184.727 335.133V329.039ZM190.504 332.185V336.955H188.529V330.615H190.375L190.504 332.185ZM192.344 330.568L192.309 332.402C192.23 332.394 192.125 332.385 191.992 332.373C191.863 332.361 191.754 332.355 191.664 332.355C191.438 332.355 191.242 332.383 191.078 332.437C190.918 332.488 190.785 332.566 190.68 332.672C190.574 332.773 190.498 332.902 190.451 333.058C190.404 333.215 190.383 333.396 190.387 333.603L190.029 333.369C190.029 332.943 190.07 332.557 190.152 332.209C190.238 331.857 190.357 331.555 190.51 331.301C190.662 331.043 190.848 330.846 191.066 330.709C191.285 330.568 191.531 330.498 191.805 330.498C191.902 330.498 191.998 330.504 192.092 330.516C192.186 330.527 192.27 330.545 192.344 330.568ZM196.094 335.361V332.736C196.094 332.557 196.068 332.404 196.018 332.279C195.971 332.15 195.895 332.051 195.789 331.98C195.684 331.91 195.541 331.875 195.361 331.875C195.217 331.875 195.094 331.9 194.992 331.951C194.891 332.002 194.812 332.078 194.758 332.18C194.707 332.281 194.682 332.41 194.682 332.566H192.713C192.713 332.273 192.777 332.002 192.906 331.752C193.035 331.498 193.221 331.277 193.463 331.09C193.705 330.902 193.994 330.758 194.33 330.656C194.67 330.551 195.049 330.498 195.467 330.498C195.963 330.498 196.406 330.582 196.797 330.75C197.191 330.914 197.502 331.162 197.729 331.494C197.959 331.826 198.074 332.244 198.074 332.748V335.355C198.074 335.769 198.098 336.084 198.145 336.299C198.191 336.51 198.258 336.695 198.344 336.855V336.955H196.363C196.273 336.76 196.205 336.521 196.158 336.24C196.115 335.955 196.094 335.662 196.094 335.361ZM196.328 333.082L196.34 334.137H195.502C195.322 334.137 195.17 334.162 195.045 334.213C194.92 334.264 194.82 334.334 194.746 334.424C194.672 334.51 194.619 334.609 194.588 334.723C194.557 334.832 194.541 334.947 194.541 335.068C194.541 335.189 194.568 335.295 194.623 335.385C194.678 335.474 194.752 335.545 194.846 335.596C194.939 335.642 195.045 335.666 195.162 335.666C195.377 335.666 195.559 335.625 195.707 335.543C195.855 335.461 195.969 335.361 196.047 335.244C196.129 335.123 196.168 335.012 196.164 334.91L196.58 335.719C196.506 335.871 196.42 336.027 196.322 336.187C196.225 336.344 196.104 336.49 195.959 336.627C195.818 336.76 195.645 336.867 195.438 336.949C195.234 337.031 194.986 337.072 194.693 337.072C194.307 337.072 193.951 336.994 193.627 336.838C193.307 336.678 193.049 336.455 192.854 336.17C192.662 335.885 192.566 335.551 192.566 335.168C192.566 334.844 192.625 334.553 192.742 334.295C192.859 334.037 193.037 333.818 193.275 333.639C193.518 333.459 193.824 333.322 194.195 333.228C194.566 333.131 195.006 333.082 195.514 333.082H196.328ZM202.756 335.502V327.955H204.736V336.955H202.961L202.756 335.502ZM198.924 333.879V333.721C198.924 333.236 198.975 332.797 199.076 332.402C199.182 332.008 199.336 331.668 199.539 331.383C199.746 331.098 200.002 330.879 200.307 330.726C200.611 330.574 200.963 330.498 201.361 330.498C201.713 330.498 202.021 330.582 202.287 330.75C202.553 330.914 202.779 331.144 202.967 331.441C203.154 331.734 203.307 332.08 203.424 332.478C203.545 332.873 203.635 333.297 203.693 333.75V333.92C203.631 334.346 203.541 334.75 203.424 335.133C203.307 335.512 203.154 335.848 202.967 336.141C202.779 336.43 202.551 336.658 202.281 336.826C202.016 336.99 201.705 337.072 201.35 337.072C200.951 337.072 200.6 336.994 200.295 336.838C199.994 336.682 199.742 336.461 199.539 336.176C199.336 335.887 199.182 335.549 199.076 335.162C198.975 334.771 198.924 334.344 198.924 333.879ZM200.893 333.721V333.879C200.893 334.121 200.908 334.344 200.939 334.547C200.971 334.746 201.023 334.922 201.098 335.074C201.172 335.226 201.27 335.344 201.391 335.426C201.516 335.508 201.67 335.549 201.854 335.549C202.1 335.549 202.303 335.488 202.463 335.367C202.627 335.246 202.748 335.076 202.826 334.857C202.904 334.635 202.938 334.375 202.926 334.078V333.592C202.934 333.338 202.916 333.113 202.873 332.918C202.834 332.719 202.77 332.555 202.68 332.426C202.59 332.293 202.477 332.193 202.34 332.127C202.207 332.057 202.049 332.021 201.865 332.021C201.686 332.021 201.533 332.062 201.408 332.144C201.287 332.226 201.188 332.344 201.109 332.496C201.035 332.648 200.98 332.828 200.945 333.035C200.91 333.242 200.893 333.471 200.893 333.721ZM208.896 337.072C208.389 337.072 207.934 336.994 207.531 336.838C207.129 336.678 206.789 336.457 206.512 336.176C206.238 335.891 206.027 335.564 205.879 335.197C205.734 334.826 205.662 334.432 205.662 334.014V333.756C205.662 333.287 205.727 332.855 205.855 332.461C205.984 332.066 206.174 331.723 206.424 331.43C206.674 331.133 206.988 330.904 207.367 330.744C207.746 330.58 208.188 330.498 208.691 330.498C209.137 330.498 209.535 330.57 209.887 330.715C210.238 330.855 210.535 331.06 210.777 331.33C211.023 331.596 211.211 331.92 211.34 332.303C211.469 332.685 211.533 333.115 211.533 333.592V334.406H206.418V333.17H209.611V333.012C209.615 332.797 209.58 332.617 209.506 332.473C209.432 332.324 209.324 332.213 209.184 332.139C209.043 332.06 208.873 332.021 208.674 332.021C208.463 332.021 208.289 332.066 208.152 332.156C208.02 332.246 207.916 332.371 207.842 332.531C207.768 332.691 207.715 332.877 207.684 333.088C207.656 333.295 207.643 333.517 207.643 333.756V334.014C207.643 334.252 207.674 334.467 207.736 334.658C207.799 334.846 207.891 335.006 208.012 335.139C208.133 335.271 208.277 335.373 208.445 335.443C208.617 335.514 208.811 335.549 209.025 335.549C209.295 335.549 209.559 335.5 209.816 335.402C210.074 335.301 210.295 335.135 210.479 334.904L211.369 335.982C211.24 336.162 211.059 336.336 210.824 336.504C210.594 336.672 210.314 336.808 209.986 336.914C209.662 337.019 209.299 337.072 208.896 337.072ZM214.328 332.185V336.955H212.354V330.615H214.199L214.328 332.185ZM216.168 330.568L216.133 332.402C216.055 332.394 215.949 332.385 215.816 332.373C215.688 332.361 215.578 332.355 215.488 332.355C215.262 332.355 215.066 332.383 214.902 332.437C214.742 332.488 214.609 332.566 214.504 332.672C214.398 332.773 214.322 332.902 214.275 333.058C214.229 333.215 214.207 333.396 214.211 333.603L213.854 333.369C213.854 332.943 213.895 332.557 213.977 332.209C214.062 331.857 214.182 331.555 214.334 331.301C214.486 331.043 214.672 330.846 214.891 330.709C215.109 330.568 215.355 330.498 215.629 330.498C215.727 330.498 215.822 330.504 215.916 330.516C216.01 330.527 216.094 330.545 216.168 330.568ZM220.123 335.18C220.123 335.07 220.086 334.976 220.012 334.898C219.941 334.816 219.816 334.742 219.637 334.676C219.461 334.605 219.215 334.533 218.898 334.459C218.594 334.389 218.309 334.299 218.043 334.189C217.777 334.08 217.543 333.947 217.34 333.791C217.141 333.635 216.984 333.449 216.871 333.234C216.758 333.019 216.701 332.773 216.701 332.496C216.701 332.226 216.758 331.973 216.871 331.734C216.984 331.492 217.152 331.279 217.375 331.096C217.598 330.912 217.869 330.767 218.189 330.662C218.51 330.553 218.875 330.498 219.285 330.498C219.852 330.498 220.34 330.586 220.75 330.762C221.16 330.933 221.475 331.174 221.693 331.482C221.916 331.791 222.027 332.148 222.027 332.555H220.059C220.059 332.394 220.033 332.26 219.982 332.15C219.932 332.037 219.85 331.951 219.736 331.892C219.623 331.83 219.471 331.799 219.279 331.799C219.15 331.799 219.031 331.824 218.922 331.875C218.812 331.926 218.725 331.996 218.658 332.086C218.596 332.172 218.564 332.275 218.564 332.396C218.564 332.482 218.584 332.56 218.623 332.631C218.666 332.697 218.729 332.76 218.811 332.818C218.896 332.873 219.004 332.924 219.133 332.971C219.262 333.014 219.416 333.055 219.596 333.094C220.018 333.176 220.412 333.289 220.779 333.433C221.146 333.578 221.445 333.783 221.676 334.049C221.906 334.314 222.021 334.672 222.021 335.121C222.021 335.402 221.957 335.662 221.828 335.9C221.703 336.135 221.52 336.34 221.277 336.516C221.039 336.691 220.752 336.828 220.416 336.926C220.08 337.023 219.701 337.072 219.279 337.072C218.682 337.072 218.176 336.965 217.762 336.75C217.348 336.531 217.035 336.258 216.824 335.93C216.613 335.601 216.508 335.267 216.508 334.928H218.348C218.355 335.123 218.4 335.283 218.482 335.408C218.568 335.529 218.684 335.619 218.828 335.678C218.973 335.736 219.141 335.766 219.332 335.766C219.508 335.766 219.652 335.74 219.766 335.689C219.883 335.639 219.971 335.57 220.029 335.484C220.092 335.398 220.123 335.297 220.123 335.18ZM224.875 327.955V336.955H222.9V327.955H224.875ZM224.641 333.568L224.178 333.58C224.178 333.135 224.23 332.724 224.336 332.349C224.445 331.974 224.6 331.648 224.799 331.371C225.002 331.094 225.244 330.879 225.525 330.726C225.807 330.574 226.119 330.498 226.463 330.498C226.771 330.498 227.053 330.543 227.307 330.633C227.564 330.723 227.787 330.867 227.975 331.066C228.162 331.266 228.307 331.525 228.408 331.846C228.51 332.166 228.561 332.557 228.561 333.017V336.955H226.58V333.006C226.58 332.748 226.545 332.549 226.475 332.408C226.404 332.264 226.305 332.164 226.176 332.109C226.047 332.051 225.889 332.021 225.701 332.021C225.475 332.021 225.291 332.06 225.15 332.139C225.01 332.217 224.902 332.326 224.828 332.467C224.754 332.603 224.703 332.766 224.676 332.953C224.652 333.141 224.641 333.346 224.641 333.568ZM233.307 335.414V330.615H235.281V336.955H233.436L233.307 335.414ZM233.494 334.125L234.004 334.113C234.004 334.539 233.953 334.933 233.852 335.297C233.754 335.656 233.607 335.969 233.412 336.234C233.217 336.5 232.979 336.707 232.697 336.855C232.416 337 232.09 337.072 231.719 337.072C231.41 337.072 231.127 337.029 230.869 336.943C230.615 336.853 230.395 336.715 230.207 336.527C230.023 336.336 229.879 336.092 229.773 335.795C229.672 335.494 229.621 335.135 229.621 334.717V330.615H231.596V334.728C231.596 334.869 231.611 334.99 231.643 335.092C231.678 335.193 231.727 335.279 231.789 335.349C231.855 335.416 231.938 335.467 232.035 335.502C232.133 335.533 232.244 335.549 232.369 335.549C232.658 335.549 232.885 335.486 233.049 335.361C233.213 335.236 233.328 335.066 233.395 334.851C233.461 334.637 233.494 334.394 233.494 334.125ZM236.389 327.955H238.363V335.396L238.158 336.955H236.389V327.955ZM242.195 333.697V333.855C242.195 334.34 242.146 334.779 242.049 335.174C241.955 335.564 241.807 335.902 241.604 336.187C241.404 336.473 241.152 336.691 240.848 336.844C240.543 336.996 240.182 337.072 239.764 337.072C239.389 337.072 239.066 336.99 238.797 336.826C238.527 336.658 238.303 336.428 238.123 336.135C237.943 335.842 237.797 335.502 237.684 335.115C237.574 334.724 237.488 334.308 237.426 333.867V333.697C237.488 333.26 237.574 332.848 237.684 332.461C237.797 332.07 237.943 331.728 238.123 331.435C238.303 331.142 238.525 330.914 238.791 330.75C239.061 330.582 239.381 330.498 239.752 330.498C240.174 330.498 240.537 330.576 240.842 330.732C241.15 330.889 241.404 331.111 241.604 331.4C241.807 331.685 241.955 332.023 242.049 332.414C242.146 332.801 242.195 333.228 242.195 333.697ZM240.227 333.855V333.697C240.227 333.463 240.213 333.246 240.186 333.047C240.158 332.844 240.109 332.666 240.039 332.514C239.973 332.357 239.877 332.236 239.752 332.15C239.627 332.064 239.463 332.021 239.26 332.021C239.053 332.021 238.879 332.057 238.738 332.127C238.602 332.197 238.492 332.297 238.41 332.426C238.328 332.555 238.27 332.715 238.234 332.906C238.203 333.094 238.189 333.305 238.193 333.539V334.025C238.186 334.346 238.213 334.621 238.275 334.851C238.338 335.078 238.449 335.252 238.609 335.373C238.77 335.494 238.99 335.555 239.271 335.555C239.479 335.555 239.645 335.516 239.77 335.437C239.898 335.359 239.994 335.246 240.057 335.098C240.123 334.945 240.168 334.766 240.191 334.558C240.215 334.348 240.227 334.113 240.227 333.855ZM246.895 332.514V334.043H243.408V332.514H246.895ZM254.289 335.432V336.955H248.406V335.666L251.113 332.783C251.348 332.506 251.537 332.258 251.682 332.039C251.83 331.816 251.938 331.615 252.004 331.435C252.07 331.256 252.104 331.094 252.104 330.949C252.104 330.703 252.068 330.498 251.998 330.334C251.928 330.166 251.824 330.039 251.688 329.953C251.555 329.867 251.391 329.824 251.195 329.824C250.996 329.824 250.822 329.883 250.674 330C250.525 330.117 250.41 330.277 250.328 330.48C250.246 330.683 250.205 330.912 250.205 331.166H248.23C248.23 330.642 248.357 330.164 248.611 329.73C248.865 329.297 249.217 328.951 249.666 328.693C250.119 328.432 250.645 328.301 251.242 328.301C251.863 328.301 252.385 328.398 252.807 328.594C253.229 328.789 253.547 329.072 253.762 329.443C253.977 329.81 254.084 330.254 254.084 330.773C254.084 331.07 254.037 331.355 253.943 331.629C253.85 331.902 253.715 332.174 253.539 332.443C253.367 332.709 253.156 332.982 252.906 333.264C252.66 333.545 252.377 333.844 252.057 334.16L250.99 335.432H254.289Z" fill="black"/>
<rect x="76" y="308.955" width="16" height="16" rx="3.2" fill="#FFE44F"/>
<path d="M80.3122 311.725C81.5962 310.819 83.1683 310.418 84.7291 310.597C86.29 310.776 87.7303 311.523 88.776 312.695C89.7037 313.736 90.2622 315.046 90.3766 316.426C90.3905 316.466 90.4 316.509 90.4 316.555V317.755C90.4 317.976 90.2206 318.155 89.9997 318.155H79.6832C79.7742 318.482 79.9029 318.8 80.068 319.103C80.5952 320.068 81.459 320.805 82.4948 321.175C83.5306 321.544 84.6663 321.519 85.6852 321.105C86.7042 320.692 87.5361 319.918 88.0211 318.931L89.7438 319.777C89.0509 321.187 87.8635 322.294 86.4079 322.885C84.9523 323.476 83.33 323.511 81.8502 322.983C80.3705 322.456 79.1366 321.402 78.3834 320.023C77.6303 318.645 77.4106 317.036 77.7663 315.506C78.122 313.976 79.0282 312.63 80.3122 311.725ZM84.5104 312.504C83.4178 312.379 82.3174 312.66 81.4186 313.294C80.5199 313.928 79.8854 314.869 79.6364 315.94C79.6198 316.012 79.6045 316.084 79.5914 316.155H88.4069C88.2605 315.349 87.8958 314.592 87.3434 313.973C86.6114 313.152 85.6029 312.629 84.5104 312.504Z" fill="black"/>
<path d="M97.5234 311.955V320.955H95.5488V311.955H97.5234ZM97.2891 317.568L96.8262 317.58C96.8262 317.135 96.8789 316.724 96.9844 316.349C97.0938 315.974 97.248 315.648 97.4473 315.371C97.6504 315.094 97.8926 314.879 98.1738 314.726C98.4551 314.574 98.7676 314.498 99.1113 314.498C99.4199 314.498 99.7012 314.543 99.9551 314.633C100.213 314.723 100.436 314.867 100.623 315.066C100.811 315.266 100.955 315.525 101.057 315.846C101.158 316.166 101.209 316.557 101.209 317.017V320.955H99.2285V317.006C99.2285 316.748 99.1934 316.549 99.123 316.408C99.0527 316.264 98.9531 316.164 98.8242 316.109C98.6953 316.051 98.5371 316.021 98.3496 316.021C98.123 316.021 97.9395 316.06 97.7988 316.139C97.6582 316.217 97.5508 316.326 97.4766 316.467C97.4023 316.603 97.3516 316.766 97.3242 316.953C97.3008 317.141 97.2891 317.346 97.2891 317.568ZM105.621 314.615V315.986H101.836V314.615H105.621ZM102.621 313.039H104.596V318.887C104.596 319.055 104.613 319.185 104.648 319.279C104.688 319.369 104.754 319.433 104.848 319.473C104.941 319.508 105.068 319.525 105.229 319.525C105.338 319.525 105.43 319.523 105.504 319.519C105.578 319.512 105.646 319.502 105.709 319.49V320.902C105.545 320.957 105.371 320.998 105.188 321.025C105.004 321.057 104.811 321.072 104.607 321.072C104.189 321.072 103.832 321.006 103.535 320.873C103.238 320.74 103.012 320.531 102.855 320.246C102.699 319.961 102.621 319.59 102.621 319.133V313.039ZM109.723 314.615V315.986H105.938V314.615H109.723ZM106.723 313.039H108.697V318.887C108.697 319.055 108.715 319.185 108.75 319.279C108.789 319.369 108.855 319.433 108.949 319.473C109.043 319.508 109.17 319.525 109.33 319.525C109.439 319.525 109.531 319.523 109.605 319.519C109.68 319.512 109.748 319.502 109.811 319.49V320.902C109.646 320.957 109.473 320.998 109.289 321.025C109.105 321.057 108.912 321.072 108.709 321.072C108.291 321.072 107.934 321.006 107.637 320.873C107.34 320.74 107.113 320.531 106.957 320.246C106.801 319.961 106.723 319.59 106.723 319.133V313.039ZM112.5 315.834V323.392H110.525V314.615H112.365L112.5 315.834ZM116.332 317.691V317.849C116.332 318.314 116.279 318.744 116.174 319.139C116.072 319.529 115.918 319.871 115.711 320.164C115.508 320.453 115.254 320.678 114.949 320.838C114.648 320.994 114.299 321.072 113.9 321.072C113.525 321.072 113.203 320.988 112.934 320.82C112.668 320.652 112.445 320.422 112.266 320.129C112.086 319.832 111.939 319.492 111.826 319.109C111.717 318.726 111.631 318.324 111.568 317.902V317.721C111.631 317.267 111.717 316.846 111.826 316.455C111.939 316.06 112.086 315.719 112.266 315.43C112.445 315.137 112.668 314.908 112.934 314.744C113.203 314.58 113.523 314.498 113.895 314.498C114.293 314.498 114.643 314.572 114.943 314.721C115.248 314.869 115.504 315.084 115.711 315.365C115.918 315.646 116.072 315.984 116.174 316.379C116.279 316.769 116.332 317.207 116.332 317.691ZM114.363 317.849V317.691C114.363 317.441 114.346 317.215 114.311 317.012C114.275 316.808 114.221 316.633 114.146 316.484C114.072 316.332 113.975 316.217 113.854 316.139C113.732 316.06 113.582 316.021 113.402 316.021C113.195 316.021 113.021 316.055 112.881 316.121C112.744 316.183 112.635 316.279 112.553 316.408C112.471 316.537 112.414 316.699 112.383 316.894C112.352 317.086 112.338 317.308 112.342 317.562V318.066C112.334 318.359 112.361 318.617 112.424 318.84C112.486 319.062 112.598 319.236 112.758 319.361C112.918 319.486 113.137 319.549 113.414 319.549C113.598 319.549 113.75 319.508 113.871 319.426C113.992 319.34 114.088 319.219 114.158 319.062C114.232 318.906 114.285 318.726 114.316 318.523C114.348 318.316 114.363 318.092 114.363 317.849ZM120.475 319.18C120.475 319.07 120.438 318.976 120.363 318.898C120.293 318.816 120.168 318.742 119.988 318.676C119.812 318.605 119.566 318.533 119.25 318.459C118.945 318.389 118.66 318.299 118.395 318.189C118.129 318.08 117.895 317.947 117.691 317.791C117.492 317.635 117.336 317.449 117.223 317.234C117.109 317.019 117.053 316.773 117.053 316.496C117.053 316.226 117.109 315.973 117.223 315.734C117.336 315.492 117.504 315.279 117.727 315.096C117.949 314.912 118.221 314.767 118.541 314.662C118.861 314.553 119.227 314.498 119.637 314.498C120.203 314.498 120.691 314.586 121.102 314.762C121.512 314.933 121.826 315.174 122.045 315.482C122.268 315.791 122.379 316.148 122.379 316.555H120.41C120.41 316.394 120.385 316.26 120.334 316.15C120.283 316.037 120.201 315.951 120.088 315.892C119.975 315.83 119.822 315.799 119.631 315.799C119.502 315.799 119.383 315.824 119.273 315.875C119.164 315.926 119.076 315.996 119.01 316.086C118.947 316.172 118.916 316.275 118.916 316.396C118.916 316.482 118.936 316.56 118.975 316.631C119.018 316.697 119.08 316.76 119.162 316.818C119.248 316.873 119.355 316.924 119.484 316.971C119.613 317.014 119.768 317.055 119.947 317.094C120.369 317.176 120.764 317.289 121.131 317.433C121.498 317.578 121.797 317.783 122.027 318.049C122.258 318.314 122.373 318.672 122.373 319.121C122.373 319.402 122.309 319.662 122.18 319.9C122.055 320.135 121.871 320.34 121.629 320.516C121.391 320.691 121.104 320.828 120.768 320.926C120.432 321.023 120.053 321.072 119.631 321.072C119.033 321.072 118.527 320.965 118.113 320.75C117.699 320.531 117.387 320.258 117.176 319.93C116.965 319.601 116.859 319.267 116.859 318.928H118.699C118.707 319.123 118.752 319.283 118.834 319.408C118.92 319.529 119.035 319.619 119.18 319.678C119.324 319.736 119.492 319.766 119.684 319.766C119.859 319.766 120.004 319.74 120.117 319.689C120.234 319.639 120.322 319.57 120.381 319.484C120.443 319.398 120.475 319.297 120.475 319.18ZM123.434 320.029C123.434 319.748 123.535 319.514 123.738 319.326C123.941 319.135 124.203 319.039 124.523 319.039C124.848 319.039 125.109 319.135 125.309 319.326C125.512 319.514 125.613 319.748 125.613 320.029C125.613 320.31 125.512 320.547 125.309 320.738C125.109 320.926 124.848 321.019 124.523 321.019C124.203 321.019 123.941 320.926 123.738 320.738C123.535 320.547 123.434 320.31 123.434 320.029ZM123.434 315.353C123.434 315.072 123.535 314.838 123.738 314.65C123.941 314.459 124.203 314.363 124.523 314.363C124.848 314.363 125.109 314.459 125.309 314.65C125.512 314.838 125.613 315.072 125.613 315.353C125.613 315.635 125.512 315.871 125.309 316.062C125.109 316.25 124.848 316.344 124.523 316.344C124.203 316.344 123.941 316.25 123.738 316.062C123.535 315.871 123.434 315.635 123.434 315.353ZM130.447 312.424L127.576 321.687H126.176L129.047 312.424H130.447ZM133.166 312.424L130.295 321.687H128.895L131.766 312.424H133.166ZM133.541 317.867V317.709C133.541 317.24 133.607 316.81 133.74 316.42C133.873 316.029 134.066 315.691 134.32 315.406C134.578 315.121 134.893 314.898 135.264 314.738C135.639 314.578 136.07 314.498 136.559 314.498C137.051 314.498 137.484 314.578 137.859 314.738C138.238 314.898 138.555 315.121 138.809 315.406C139.066 315.691 139.26 316.029 139.389 316.42C139.521 316.81 139.588 317.24 139.588 317.709V317.867C139.588 318.332 139.521 318.76 139.389 319.15C139.26 319.541 139.066 319.881 138.809 320.17C138.555 320.459 138.24 320.682 137.865 320.838C137.49 320.994 137.059 321.072 136.57 321.072C136.082 321.072 135.648 320.994 135.27 320.838C134.895 320.682 134.578 320.459 134.32 320.17C134.066 319.881 133.873 319.541 133.74 319.15C133.607 318.76 133.541 318.332 133.541 317.867ZM135.516 317.709V317.867C135.516 318.109 135.533 318.334 135.568 318.541C135.604 318.744 135.66 318.922 135.738 319.074C135.82 319.226 135.928 319.344 136.061 319.426C136.197 319.508 136.367 319.549 136.57 319.549C136.773 319.549 136.941 319.508 137.074 319.426C137.211 319.344 137.318 319.226 137.396 319.074C137.479 318.922 137.535 318.744 137.566 318.541C137.602 318.334 137.619 318.109 137.619 317.867V317.709C137.619 317.474 137.602 317.256 137.566 317.053C137.531 316.849 137.473 316.67 137.391 316.514C137.312 316.357 137.205 316.236 137.068 316.15C136.932 316.064 136.762 316.021 136.559 316.021C136.359 316.021 136.193 316.064 136.061 316.15C135.928 316.236 135.82 316.357 135.738 316.514C135.66 316.67 135.604 316.849 135.568 317.053C135.533 317.256 135.516 317.474 135.516 317.709ZM142.4 315.969V320.955H140.426V314.615H142.277L142.4 315.969ZM142.166 317.568L141.703 317.58C141.703 317.096 141.76 316.664 141.873 316.285C141.99 315.902 142.154 315.578 142.365 315.312C142.58 315.047 142.834 314.846 143.127 314.709C143.424 314.568 143.754 314.498 144.117 314.498C144.406 314.498 144.67 314.541 144.908 314.627C145.15 314.713 145.359 314.851 145.535 315.043C145.711 315.234 145.846 315.488 145.939 315.805C146.033 316.117 146.08 316.504 146.08 316.965V320.955H144.1V316.959C144.1 316.705 144.064 316.512 143.994 316.379C143.928 316.242 143.83 316.148 143.701 316.098C143.572 316.047 143.414 316.021 143.227 316.021C143.027 316.021 142.859 316.06 142.723 316.139C142.586 316.217 142.477 316.326 142.395 316.467C142.312 316.603 142.254 316.766 142.219 316.953C142.184 317.141 142.166 317.346 142.166 317.568ZM150.217 321.072C149.709 321.072 149.254 320.994 148.852 320.838C148.449 320.678 148.109 320.457 147.832 320.176C147.559 319.891 147.348 319.564 147.199 319.197C147.055 318.826 146.982 318.432 146.982 318.014V317.756C146.982 317.287 147.047 316.855 147.176 316.461C147.305 316.066 147.494 315.723 147.744 315.43C147.994 315.133 148.309 314.904 148.688 314.744C149.066 314.58 149.508 314.498 150.012 314.498C150.457 314.498 150.855 314.57 151.207 314.715C151.559 314.855 151.855 315.06 152.098 315.33C152.344 315.596 152.531 315.92 152.66 316.303C152.789 316.685 152.854 317.115 152.854 317.592V318.406H147.738V317.17H150.932V317.012C150.936 316.797 150.9 316.617 150.826 316.473C150.752 316.324 150.645 316.213 150.504 316.139C150.363 316.06 150.193 316.021 149.994 316.021C149.783 316.021 149.609 316.066 149.473 316.156C149.34 316.246 149.236 316.371 149.162 316.531C149.088 316.691 149.035 316.877 149.004 317.088C148.977 317.295 148.963 317.517 148.963 317.756V318.014C148.963 318.252 148.994 318.467 149.057 318.658C149.119 318.846 149.211 319.006 149.332 319.139C149.453 319.271 149.598 319.373 149.766 319.443C149.938 319.514 150.131 319.549 150.346 319.549C150.615 319.549 150.879 319.5 151.137 319.402C151.395 319.301 151.615 319.135 151.799 318.904L152.689 319.982C152.561 320.162 152.379 320.336 152.145 320.504C151.914 320.672 151.635 320.808 151.307 320.914C150.982 321.019 150.619 321.072 150.217 321.072ZM153.791 320.029C153.791 319.748 153.893 319.514 154.096 319.326C154.299 319.135 154.561 319.039 154.881 319.039C155.205 319.039 155.467 319.135 155.666 319.326C155.869 319.514 155.971 319.748 155.971 320.029C155.971 320.31 155.869 320.547 155.666 320.738C155.467 320.926 155.205 321.019 154.881 321.019C154.561 321.019 154.299 320.926 154.096 320.738C153.893 320.547 153.791 320.31 153.791 320.029ZM160.33 321.072C159.822 321.072 159.367 320.994 158.965 320.838C158.562 320.678 158.223 320.457 157.945 320.176C157.672 319.891 157.461 319.564 157.312 319.197C157.168 318.826 157.096 318.432 157.096 318.014V317.756C157.096 317.287 157.16 316.855 157.289 316.461C157.418 316.066 157.607 315.723 157.857 315.43C158.107 315.133 158.422 314.904 158.801 314.744C159.18 314.58 159.621 314.498 160.125 314.498C160.57 314.498 160.969 314.57 161.32 314.715C161.672 314.855 161.969 315.06 162.211 315.33C162.457 315.596 162.645 315.92 162.773 316.303C162.902 316.685 162.967 317.115 162.967 317.592V318.406H157.852V317.17H161.045V317.012C161.049 316.797 161.014 316.617 160.939 316.473C160.865 316.324 160.758 316.213 160.617 316.139C160.477 316.06 160.307 316.021 160.107 316.021C159.896 316.021 159.723 316.066 159.586 316.156C159.453 316.246 159.35 316.371 159.275 316.531C159.201 316.691 159.148 316.877 159.117 317.088C159.09 317.295 159.076 317.517 159.076 317.756V318.014C159.076 318.252 159.107 318.467 159.17 318.658C159.232 318.846 159.324 319.006 159.445 319.139C159.566 319.271 159.711 319.373 159.879 319.443C160.051 319.514 160.244 319.549 160.459 319.549C160.729 319.549 160.992 319.5 161.25 319.402C161.508 319.301 161.729 319.135 161.912 318.904L162.803 319.982C162.674 320.162 162.492 320.336 162.258 320.504C162.027 320.672 161.748 320.808 161.42 320.914C161.096 321.019 160.732 321.072 160.33 321.072ZM165.451 314.615L166.312 316.361L167.209 314.615H169.254L167.619 317.703L169.342 320.955H167.279L166.312 319.08L165.357 320.955H163.295L165.018 317.703L163.389 314.615H165.451ZM171.838 315.969V320.955H169.863V314.615H171.715L171.838 315.969ZM171.604 317.568L171.141 317.58C171.141 317.096 171.197 316.664 171.311 316.285C171.428 315.902 171.592 315.578 171.803 315.312C172.018 315.047 172.271 314.846 172.564 314.709C172.861 314.568 173.191 314.498 173.555 314.498C173.844 314.498 174.107 314.541 174.346 314.627C174.588 314.713 174.797 314.851 174.973 315.043C175.148 315.234 175.283 315.488 175.377 315.805C175.471 316.117 175.518 316.504 175.518 316.965V320.955H173.537V316.959C173.537 316.705 173.502 316.512 173.432 316.379C173.365 316.242 173.268 316.148 173.139 316.098C173.01 316.047 172.852 316.021 172.664 316.021C172.465 316.021 172.297 316.06 172.16 316.139C172.023 316.217 171.914 316.326 171.832 316.467C171.75 316.603 171.691 316.766 171.656 316.953C171.621 317.141 171.604 317.346 171.604 317.568ZM179.654 321.072C179.146 321.072 178.691 320.994 178.289 320.838C177.887 320.678 177.547 320.457 177.27 320.176C176.996 319.891 176.785 319.564 176.637 319.197C176.492 318.826 176.42 318.432 176.42 318.014V317.756C176.42 317.287 176.484 316.855 176.613 316.461C176.742 316.066 176.932 315.723 177.182 315.43C177.432 315.133 177.746 314.904 178.125 314.744C178.504 314.58 178.945 314.498 179.449 314.498C179.895 314.498 180.293 314.57 180.645 314.715C180.996 314.855 181.293 315.06 181.535 315.33C181.781 315.596 181.969 315.92 182.098 316.303C182.227 316.685 182.291 317.115 182.291 317.592V318.406H177.176V317.17H180.369V317.012C180.373 316.797 180.338 316.617 180.264 316.473C180.189 316.324 180.082 316.213 179.941 316.139C179.801 316.06 179.631 316.021 179.432 316.021C179.221 316.021 179.047 316.066 178.91 316.156C178.777 316.246 178.674 316.371 178.6 316.531C178.525 316.691 178.473 316.877 178.441 317.088C178.414 317.295 178.4 317.517 178.4 317.756V318.014C178.4 318.252 178.432 318.467 178.494 318.658C178.557 318.846 178.648 319.006 178.77 319.139C178.891 319.271 179.035 319.373 179.203 319.443C179.375 319.514 179.568 319.549 179.783 319.549C180.053 319.549 180.316 319.5 180.574 319.402C180.832 319.301 181.053 319.135 181.236 318.904L182.127 319.982C181.998 320.162 181.816 320.336 181.582 320.504C181.352 320.672 181.072 320.808 180.744 320.914C180.42 321.019 180.057 321.072 179.654 321.072ZM186.369 319.18C186.369 319.07 186.332 318.976 186.258 318.898C186.188 318.816 186.062 318.742 185.883 318.676C185.707 318.605 185.461 318.533 185.145 318.459C184.84 318.389 184.555 318.299 184.289 318.189C184.023 318.08 183.789 317.947 183.586 317.791C183.387 317.635 183.23 317.449 183.117 317.234C183.004 317.019 182.947 316.773 182.947 316.496C182.947 316.226 183.004 315.973 183.117 315.734C183.23 315.492 183.398 315.279 183.621 315.096C183.844 314.912 184.115 314.767 184.436 314.662C184.756 314.553 185.121 314.498 185.531 314.498C186.098 314.498 186.586 314.586 186.996 314.762C187.406 314.933 187.721 315.174 187.939 315.482C188.162 315.791 188.273 316.148 188.273 316.555H186.305C186.305 316.394 186.279 316.26 186.229 316.15C186.178 316.037 186.096 315.951 185.982 315.892C185.869 315.83 185.717 315.799 185.525 315.799C185.396 315.799 185.277 315.824 185.168 315.875C185.059 315.926 184.971 315.996 184.904 316.086C184.842 316.172 184.811 316.275 184.811 316.396C184.811 316.482 184.83 316.56 184.869 316.631C184.912 316.697 184.975 316.76 185.057 316.818C185.143 316.873 185.25 316.924 185.379 316.971C185.508 317.014 185.662 317.055 185.842 317.094C186.264 317.176 186.658 317.289 187.025 317.433C187.393 317.578 187.691 317.783 187.922 318.049C188.152 318.314 188.268 318.672 188.268 319.121C188.268 319.402 188.203 319.662 188.074 319.9C187.949 320.135 187.766 320.34 187.523 320.516C187.285 320.691 186.998 320.828 186.662 320.926C186.326 321.023 185.947 321.072 185.525 321.072C184.928 321.072 184.422 320.965 184.008 320.75C183.594 320.531 183.281 320.258 183.07 319.93C182.859 319.601 182.754 319.267 182.754 318.928H184.594C184.602 319.123 184.646 319.283 184.729 319.408C184.814 319.529 184.93 319.619 185.074 319.678C185.219 319.736 185.387 319.766 185.578 319.766C185.754 319.766 185.898 319.74 186.012 319.689C186.129 319.639 186.217 319.57 186.275 319.484C186.338 319.398 186.369 319.297 186.369 319.18ZM192.463 319.18C192.463 319.07 192.426 318.976 192.352 318.898C192.281 318.816 192.156 318.742 191.977 318.676C191.801 318.605 191.555 318.533 191.238 318.459C190.934 318.389 190.648 318.299 190.383 318.189C190.117 318.08 189.883 317.947 189.68 317.791C189.48 317.635 189.324 317.449 189.211 317.234C189.098 317.019 189.041 316.773 189.041 316.496C189.041 316.226 189.098 315.973 189.211 315.734C189.324 315.492 189.492 315.279 189.715 315.096C189.938 314.912 190.209 314.767 190.529 314.662C190.85 314.553 191.215 314.498 191.625 314.498C192.191 314.498 192.68 314.586 193.09 314.762C193.5 314.933 193.814 315.174 194.033 315.482C194.256 315.791 194.367 316.148 194.367 316.555H192.398C192.398 316.394 192.373 316.26 192.322 316.15C192.271 316.037 192.189 315.951 192.076 315.892C191.963 315.83 191.811 315.799 191.619 315.799C191.49 315.799 191.371 315.824 191.262 315.875C191.152 315.926 191.064 315.996 190.998 316.086C190.936 316.172 190.904 316.275 190.904 316.396C190.904 316.482 190.924 316.56 190.963 316.631C191.006 316.697 191.068 316.76 191.15 316.818C191.236 316.873 191.344 316.924 191.473 316.971C191.602 317.014 191.756 317.055 191.936 317.094C192.357 317.176 192.752 317.289 193.119 317.433C193.486 317.578 193.785 317.783 194.016 318.049C194.246 318.314 194.361 318.672 194.361 319.121C194.361 319.402 194.297 319.662 194.168 319.9C194.043 320.135 193.859 320.34 193.617 320.516C193.379 320.691 193.092 320.828 192.756 320.926C192.42 321.023 192.041 321.072 191.619 321.072C191.021 321.072 190.516 320.965 190.102 320.75C189.688 320.531 189.375 320.258 189.164 319.93C188.953 319.601 188.848 319.267 188.848 318.928H190.688C190.695 319.123 190.74 319.283 190.822 319.408C190.908 319.529 191.023 319.619 191.168 319.678C191.312 319.736 191.48 319.766 191.672 319.766C191.848 319.766 191.992 319.74 192.105 319.689C192.223 319.639 192.311 319.57 192.369 319.484C192.432 319.398 192.463 319.297 192.463 319.18ZM198.598 314.615V315.986H194.812V314.615H198.598ZM195.598 313.039H197.572V318.887C197.572 319.055 197.59 319.185 197.625 319.279C197.664 319.369 197.73 319.433 197.824 319.473C197.918 319.508 198.045 319.525 198.205 319.525C198.314 319.525 198.406 319.523 198.48 319.519C198.555 319.512 198.623 319.502 198.686 319.49V320.902C198.521 320.957 198.348 320.998 198.164 321.025C197.98 321.057 197.787 321.072 197.584 321.072C197.166 321.072 196.809 321.006 196.512 320.873C196.215 320.74 195.988 320.531 195.832 320.246C195.676 319.961 195.598 319.59 195.598 319.133V313.039ZM201.375 316.185V320.955H199.4V314.615H201.246L201.375 316.185ZM203.215 314.568L203.18 316.402C203.102 316.394 202.996 316.385 202.863 316.373C202.734 316.361 202.625 316.355 202.535 316.355C202.309 316.355 202.113 316.383 201.949 316.437C201.789 316.488 201.656 316.566 201.551 316.672C201.445 316.773 201.369 316.902 201.322 317.058C201.275 317.215 201.254 317.396 201.258 317.603L200.9 317.369C200.9 316.943 200.941 316.557 201.023 316.209C201.109 315.857 201.229 315.555 201.381 315.301C201.533 315.043 201.719 314.846 201.938 314.709C202.156 314.568 202.402 314.498 202.676 314.498C202.773 314.498 202.869 314.504 202.963 314.516C203.057 314.527 203.141 314.545 203.215 314.568ZM206.965 319.361V316.736C206.965 316.557 206.939 316.404 206.889 316.279C206.842 316.15 206.766 316.051 206.66 315.98C206.555 315.91 206.412 315.875 206.232 315.875C206.088 315.875 205.965 315.9 205.863 315.951C205.762 316.002 205.684 316.078 205.629 316.18C205.578 316.281 205.553 316.41 205.553 316.566H203.584C203.584 316.273 203.648 316.002 203.777 315.752C203.906 315.498 204.092 315.277 204.334 315.09C204.576 314.902 204.865 314.758 205.201 314.656C205.541 314.551 205.92 314.498 206.338 314.498C206.834 314.498 207.277 314.582 207.668 314.75C208.062 314.914 208.373 315.162 208.6 315.494C208.83 315.826 208.945 316.244 208.945 316.748V319.355C208.945 319.769 208.969 320.084 209.016 320.299C209.062 320.51 209.129 320.695 209.215 320.855V320.955H207.234C207.145 320.76 207.076 320.521 207.029 320.24C206.986 319.955 206.965 319.662 206.965 319.361ZM207.199 317.082L207.211 318.137H206.373C206.193 318.137 206.041 318.162 205.916 318.213C205.791 318.264 205.691 318.334 205.617 318.424C205.543 318.51 205.49 318.609 205.459 318.723C205.428 318.832 205.412 318.947 205.412 319.068C205.412 319.189 205.439 319.295 205.494 319.385C205.549 319.474 205.623 319.545 205.717 319.596C205.811 319.642 205.916 319.666 206.033 319.666C206.248 319.666 206.43 319.625 206.578 319.543C206.727 319.461 206.84 319.361 206.918 319.244C207 319.123 207.039 319.012 207.035 318.91L207.451 319.719C207.377 319.871 207.291 320.027 207.193 320.187C207.096 320.344 206.975 320.49 206.83 320.627C206.689 320.76 206.516 320.867 206.309 320.949C206.105 321.031 205.857 321.072 205.564 321.072C205.178 321.072 204.822 320.994 204.498 320.838C204.178 320.678 203.92 320.455 203.725 320.17C203.533 319.885 203.438 319.551 203.438 319.168C203.438 318.844 203.496 318.553 203.613 318.295C203.73 318.037 203.908 317.818 204.146 317.639C204.389 317.459 204.695 317.322 205.066 317.228C205.438 317.131 205.877 317.082 206.385 317.082H207.199ZM212.689 319.549C212.869 319.549 213.021 319.516 213.146 319.449C213.275 319.383 213.371 319.287 213.434 319.162C213.5 319.033 213.531 318.877 213.527 318.693H215.385C215.389 319.174 215.273 319.594 215.039 319.953C214.805 320.308 214.486 320.584 214.084 320.779C213.686 320.974 213.236 321.072 212.736 321.072C212.244 321.072 211.814 320.992 211.447 320.832C211.08 320.672 210.773 320.449 210.527 320.164C210.285 319.875 210.102 319.537 209.977 319.15C209.855 318.76 209.795 318.334 209.795 317.873V317.703C209.795 317.242 209.855 316.816 209.977 316.426C210.102 316.035 210.285 315.697 210.527 315.412C210.773 315.123 211.078 314.898 211.441 314.738C211.809 314.578 212.236 314.498 212.725 314.498C213.244 314.498 213.703 314.598 214.102 314.797C214.504 314.992 214.818 315.279 215.045 315.658C215.275 316.037 215.389 316.498 215.385 317.041H213.527C213.531 316.846 213.504 316.672 213.445 316.519C213.387 316.367 213.293 316.246 213.164 316.156C213.039 316.066 212.877 316.021 212.678 316.021C212.479 316.021 212.318 316.066 212.197 316.156C212.076 316.242 211.984 316.363 211.922 316.519C211.859 316.672 211.818 316.849 211.799 317.053C211.779 317.252 211.77 317.469 211.77 317.703V317.873C211.77 318.111 211.779 318.332 211.799 318.535C211.818 318.738 211.859 318.916 211.922 319.068C211.988 319.221 212.082 319.34 212.203 319.426C212.324 319.508 212.486 319.549 212.689 319.549ZM218.215 311.949V320.955H216.24V311.949H218.215ZM222.217 314.615L219.504 317.844L218.074 319.285L217.213 318.031L218.402 316.467L219.855 314.615H222.217ZM220.102 320.955L218.449 318.066L219.902 317.029L222.357 320.955H220.102ZM222.873 320.029C222.873 319.748 222.975 319.514 223.178 319.326C223.381 319.135 223.643 319.039 223.963 319.039C224.287 319.039 224.549 319.135 224.748 319.326C224.951 319.514 225.053 319.748 225.053 320.029C225.053 320.31 224.951 320.547 224.748 320.738C224.549 320.926 224.287 321.019 223.963 321.019C223.643 321.019 223.381 320.926 223.178 320.738C222.975 320.547 222.873 320.31 222.873 320.029ZM226.131 317.867V317.709C226.131 317.24 226.197 316.81 226.33 316.42C226.463 316.029 226.656 315.691 226.91 315.406C227.168 315.121 227.482 314.898 227.854 314.738C228.229 314.578 228.66 314.498 229.148 314.498C229.641 314.498 230.074 314.578 230.449 314.738C230.828 314.898 231.145 315.121 231.398 315.406C231.656 315.691 231.85 316.029 231.979 316.42C232.111 316.81 232.178 317.24 232.178 317.709V317.867C232.178 318.332 232.111 318.76 231.979 319.15C231.85 319.541 231.656 319.881 231.398 320.17C231.145 320.459 230.83 320.682 230.455 320.838C230.08 320.994 229.648 321.072 229.16 321.072C228.672 321.072 228.238 320.994 227.859 320.838C227.484 320.682 227.168 320.459 226.91 320.17C226.656 319.881 226.463 319.541 226.33 319.15C226.197 318.76 226.131 318.332 226.131 317.867ZM228.105 317.709V317.867C228.105 318.109 228.123 318.334 228.158 318.541C228.193 318.744 228.25 318.922 228.328 319.074C228.41 319.226 228.518 319.344 228.65 319.426C228.787 319.508 228.957 319.549 229.16 319.549C229.363 319.549 229.531 319.508 229.664 319.426C229.801 319.344 229.908 319.226 229.986 319.074C230.068 318.922 230.125 318.744 230.156 318.541C230.191 318.334 230.209 318.109 230.209 317.867V317.709C230.209 317.474 230.191 317.256 230.156 317.053C230.121 316.849 230.062 316.67 229.98 316.514C229.902 316.357 229.795 316.236 229.658 316.15C229.521 316.064 229.352 316.021 229.148 316.021C228.949 316.021 228.783 316.064 228.65 316.15C228.518 316.236 228.41 316.357 228.328 316.514C228.25 316.67 228.193 316.849 228.158 317.053C228.123 317.256 228.105 317.474 228.105 317.709ZM235.043 316.185V320.955H233.068V314.615H234.914L235.043 316.185ZM236.883 314.568L236.848 316.402C236.77 316.394 236.664 316.385 236.531 316.373C236.402 316.361 236.293 316.355 236.203 316.355C235.977 316.355 235.781 316.383 235.617 316.437C235.457 316.488 235.324 316.566 235.219 316.672C235.113 316.773 235.037 316.902 234.99 317.058C234.943 317.215 234.922 317.396 234.926 317.603L234.568 317.369C234.568 316.943 234.609 316.557 234.691 316.209C234.777 315.857 234.896 315.555 235.049 315.301C235.201 315.043 235.387 314.846 235.605 314.709C235.824 314.568 236.07 314.498 236.344 314.498C236.441 314.498 236.537 314.504 236.631 314.516C236.725 314.527 236.809 314.545 236.883 314.568ZM241.377 314.615H243.164V320.726C243.164 321.312 243.031 321.807 242.766 322.209C242.5 322.615 242.127 322.924 241.646 323.135C241.17 323.346 240.613 323.451 239.977 323.451C239.695 323.451 239.408 323.414 239.115 323.34C238.822 323.269 238.549 323.166 238.295 323.029C238.041 322.892 237.828 322.724 237.656 322.525L238.471 321.359C238.627 321.531 238.824 321.68 239.062 321.805C239.301 321.93 239.582 321.992 239.906 321.992C240.184 321.992 240.416 321.941 240.604 321.84C240.795 321.742 240.939 321.598 241.037 321.406C241.139 321.219 241.189 320.988 241.189 320.715V316.115L241.377 314.615ZM237.223 317.879V317.721C237.223 317.236 237.281 316.797 237.398 316.402C237.516 316.008 237.686 315.668 237.908 315.383C238.131 315.098 238.4 314.879 238.717 314.726C239.033 314.574 239.391 314.498 239.789 314.498C240.215 314.498 240.564 314.582 240.838 314.75C241.115 314.914 241.336 315.144 241.5 315.441C241.668 315.734 241.799 316.08 241.893 316.478C241.986 316.873 242.064 317.297 242.127 317.75V317.92C242.064 318.346 241.977 318.75 241.863 319.133C241.75 319.512 241.604 319.848 241.424 320.141C241.244 320.43 241.018 320.658 240.744 320.826C240.475 320.99 240.152 321.072 239.777 321.072C239.383 321.072 239.027 320.994 238.711 320.838C238.398 320.682 238.131 320.461 237.908 320.176C237.686 319.887 237.516 319.549 237.398 319.162C237.281 318.771 237.223 318.344 237.223 317.879ZM239.191 317.721V317.879C239.191 318.121 239.213 318.344 239.256 318.547C239.303 318.746 239.371 318.922 239.461 319.074C239.555 319.226 239.668 319.344 239.801 319.426C239.938 319.508 240.098 319.549 240.281 319.549C240.559 319.549 240.783 319.488 240.955 319.367C241.127 319.246 241.25 319.076 241.324 318.857C241.402 318.635 241.436 318.375 241.424 318.078V317.592C241.432 317.338 241.414 317.113 241.371 316.918C241.332 316.719 241.268 316.555 241.178 316.426C241.088 316.293 240.969 316.193 240.82 316.127C240.676 316.057 240.5 316.021 240.293 316.021C240.113 316.021 239.955 316.062 239.818 316.144C239.682 316.226 239.566 316.344 239.473 316.496C239.383 316.648 239.312 316.828 239.262 317.035C239.215 317.242 239.191 317.471 239.191 317.721ZM247.846 312.424L244.975 321.687H243.574L246.445 312.424H247.846ZM251.707 319.361V316.736C251.707 316.557 251.682 316.404 251.631 316.279C251.584 316.15 251.508 316.051 251.402 315.98C251.297 315.91 251.154 315.875 250.975 315.875C250.83 315.875 250.707 315.9 250.605 315.951C250.504 316.002 250.426 316.078 250.371 316.18C250.32 316.281 250.295 316.41 250.295 316.566H248.326C248.326 316.273 248.391 316.002 248.52 315.752C248.648 315.498 248.834 315.277 249.076 315.09C249.318 314.902 249.607 314.758 249.943 314.656C250.283 314.551 250.662 314.498 251.08 314.498C251.576 314.498 252.02 314.582 252.41 314.75C252.805 314.914 253.115 315.162 253.342 315.494C253.572 315.826 253.688 316.244 253.688 316.748V319.355C253.688 319.769 253.711 320.084 253.758 320.299C253.805 320.51 253.871 320.695 253.957 320.855V320.955H251.977C251.887 320.76 251.818 320.521 251.771 320.24C251.729 319.955 251.707 319.662 251.707 319.361ZM251.941 317.082L251.953 318.137H251.115C250.936 318.137 250.783 318.162 250.658 318.213C250.533 318.264 250.434 318.334 250.359 318.424C250.285 318.51 250.232 318.609 250.201 318.723C250.17 318.832 250.154 318.947 250.154 319.068C250.154 319.189 250.182 319.295 250.236 319.385C250.291 319.474 250.365 319.545 250.459 319.596C250.553 319.642 250.658 319.666 250.775 319.666C250.99 319.666 251.172 319.625 251.32 319.543C251.469 319.461 251.582 319.361 251.66 319.244C251.742 319.123 251.781 319.012 251.777 318.91L252.193 319.719C252.119 319.871 252.033 320.027 251.936 320.187C251.838 320.344 251.717 320.49 251.572 320.627C251.432 320.76 251.258 320.867 251.051 320.949C250.848 321.031 250.6 321.072 250.307 321.072C249.92 321.072 249.564 320.994 249.24 320.838C248.92 320.678 248.662 320.455 248.467 320.17C248.275 319.885 248.18 319.551 248.18 319.168C248.18 318.844 248.238 318.553 248.355 318.295C248.473 318.037 248.65 317.818 248.889 317.639C249.131 317.459 249.438 317.322 249.809 317.228C250.18 317.131 250.619 317.082 251.127 317.082H251.941ZM258.334 312.424L255.463 321.687H254.062L256.934 312.424H258.334ZM264.809 319.432V320.955H258.926V319.666L261.633 316.783C261.867 316.506 262.057 316.258 262.201 316.039C262.35 315.816 262.457 315.615 262.523 315.435C262.59 315.256 262.623 315.094 262.623 314.949C262.623 314.703 262.588 314.498 262.518 314.334C262.447 314.166 262.344 314.039 262.207 313.953C262.074 313.867 261.91 313.824 261.715 313.824C261.516 313.824 261.342 313.883 261.193 314C261.045 314.117 260.93 314.277 260.848 314.48C260.766 314.683 260.725 314.912 260.725 315.166H258.75C258.75 314.642 258.877 314.164 259.131 313.73C259.385 313.297 259.736 312.951 260.186 312.693C260.639 312.432 261.164 312.301 261.762 312.301C262.383 312.301 262.904 312.398 263.326 312.594C263.748 312.789 264.066 313.072 264.281 313.443C264.496 313.81 264.604 314.254 264.604 314.773C264.604 315.07 264.557 315.355 264.463 315.629C264.369 315.902 264.234 316.174 264.059 316.443C263.887 316.709 263.676 316.982 263.426 317.264C263.18 317.545 262.896 317.844 262.576 318.16L261.51 319.432H264.809ZM270.211 312.301H270.527V313.853H270.422C270.051 313.853 269.703 313.906 269.379 314.012C269.055 314.117 268.77 314.277 268.523 314.492C268.281 314.703 268.092 314.971 267.955 315.295C267.818 315.619 267.75 316 267.75 316.437V317.932C267.75 318.205 267.773 318.443 267.82 318.646C267.867 318.849 267.936 319.017 268.025 319.15C268.115 319.283 268.227 319.383 268.359 319.449C268.496 319.516 268.654 319.549 268.834 319.549C268.982 319.549 269.119 319.514 269.244 319.443C269.369 319.373 269.479 319.273 269.572 319.144C269.666 319.016 269.736 318.865 269.783 318.693C269.834 318.521 269.859 318.334 269.859 318.131C269.859 317.912 269.832 317.715 269.777 317.539C269.727 317.363 269.652 317.215 269.555 317.094C269.457 316.969 269.34 316.875 269.203 316.812C269.07 316.746 268.924 316.713 268.764 316.713C268.518 316.713 268.311 316.769 268.143 316.883C267.975 316.992 267.848 317.133 267.762 317.305C267.676 317.476 267.633 317.65 267.633 317.826L267.164 317.346C267.156 317.111 267.199 316.869 267.293 316.619C267.391 316.369 267.535 316.137 267.727 315.922C267.918 315.707 268.158 315.533 268.447 315.4C268.736 315.267 269.072 315.201 269.455 315.201C269.842 315.201 270.182 315.275 270.475 315.424C270.771 315.572 271.02 315.779 271.219 316.045C271.422 316.31 271.576 316.621 271.682 316.976C271.787 317.332 271.84 317.717 271.84 318.131C271.84 318.549 271.766 318.937 271.617 319.297C271.473 319.652 271.27 319.963 271.008 320.228C270.746 320.494 270.436 320.701 270.076 320.849C269.717 320.998 269.32 321.072 268.887 321.072C268.441 321.072 268.029 320.996 267.65 320.844C267.275 320.687 266.947 320.463 266.666 320.17C266.389 319.873 266.172 319.512 266.016 319.086C265.859 318.66 265.781 318.178 265.781 317.639V316.918C265.781 316.187 265.898 315.537 266.133 314.967C266.371 314.396 266.695 313.914 267.105 313.519C267.52 313.121 267.992 312.818 268.523 312.611C269.059 312.404 269.621 312.301 270.211 312.301ZM274.67 315.969V320.955H272.695V314.615H274.547L274.67 315.969ZM274.436 317.568L273.973 317.58C273.973 317.096 274.029 316.664 274.143 316.285C274.26 315.902 274.424 315.578 274.635 315.312C274.85 315.047 275.104 314.846 275.396 314.709C275.693 314.568 276.023 314.498 276.387 314.498C276.676 314.498 276.939 314.541 277.178 314.627C277.42 314.713 277.629 314.851 277.805 315.043C277.98 315.234 278.115 315.488 278.209 315.805C278.303 316.117 278.35 316.504 278.35 316.965V320.955H276.369V316.959C276.369 316.705 276.334 316.512 276.264 316.379C276.197 316.242 276.1 316.148 275.971 316.098C275.842 316.047 275.684 316.021 275.496 316.021C275.297 316.021 275.129 316.06 274.992 316.139C274.855 316.217 274.746 316.326 274.664 316.467C274.582 316.603 274.523 316.766 274.488 316.953C274.453 317.141 274.436 317.346 274.436 317.568ZM281.438 315.834V323.392H279.463V314.615H281.303L281.438 315.834ZM285.27 317.691V317.849C285.27 318.314 285.217 318.744 285.111 319.139C285.01 319.529 284.855 319.871 284.648 320.164C284.445 320.453 284.191 320.678 283.887 320.838C283.586 320.994 283.236 321.072 282.838 321.072C282.463 321.072 282.141 320.988 281.871 320.82C281.605 320.652 281.383 320.422 281.203 320.129C281.023 319.832 280.877 319.492 280.764 319.109C280.654 318.726 280.568 318.324 280.506 317.902V317.721C280.568 317.267 280.654 316.846 280.764 316.455C280.877 316.06 281.023 315.719 281.203 315.43C281.383 315.137 281.605 314.908 281.871 314.744C282.141 314.58 282.461 314.498 282.832 314.498C283.23 314.498 283.58 314.572 283.881 314.721C284.186 314.869 284.441 315.084 284.648 315.365C284.855 315.646 285.01 315.984 285.111 316.379C285.217 316.769 285.27 317.207 285.27 317.691ZM283.301 317.849V317.691C283.301 317.441 283.283 317.215 283.248 317.012C283.213 316.808 283.158 316.633 283.084 316.484C283.01 316.332 282.912 316.217 282.791 316.139C282.67 316.06 282.52 316.021 282.34 316.021C282.133 316.021 281.959 316.055 281.818 316.121C281.682 316.183 281.572 316.279 281.49 316.408C281.408 316.537 281.352 316.699 281.32 316.894C281.289 317.086 281.275 317.308 281.279 317.562V318.066C281.271 318.359 281.299 318.617 281.361 318.84C281.424 319.062 281.535 319.236 281.695 319.361C281.855 319.486 282.074 319.549 282.352 319.549C282.535 319.549 282.688 319.508 282.809 319.426C282.93 319.34 283.025 319.219 283.096 319.062C283.17 318.906 283.223 318.726 283.254 318.523C283.285 318.316 283.301 318.092 283.301 317.849ZM289.178 321.072C288.67 321.072 288.215 320.994 287.812 320.838C287.41 320.678 287.07 320.457 286.793 320.176C286.52 319.891 286.309 319.564 286.16 319.197C286.016 318.826 285.943 318.432 285.943 318.014V317.756C285.943 317.287 286.008 316.855 286.137 316.461C286.266 316.066 286.455 315.723 286.705 315.43C286.955 315.133 287.27 314.904 287.648 314.744C288.027 314.58 288.469 314.498 288.973 314.498C289.418 314.498 289.816 314.57 290.168 314.715C290.52 314.855 290.816 315.06 291.059 315.33C291.305 315.596 291.492 315.92 291.621 316.303C291.75 316.685 291.814 317.115 291.814 317.592V318.406H286.699V317.17H289.893V317.012C289.896 316.797 289.861 316.617 289.787 316.473C289.713 316.324 289.605 316.213 289.465 316.139C289.324 316.06 289.154 316.021 288.955 316.021C288.744 316.021 288.57 316.066 288.434 316.156C288.301 316.246 288.197 316.371 288.123 316.531C288.049 316.691 287.996 316.877 287.965 317.088C287.938 317.295 287.924 317.517 287.924 317.756V318.014C287.924 318.252 287.955 318.467 288.018 318.658C288.08 318.846 288.172 319.006 288.293 319.139C288.414 319.271 288.559 319.373 288.727 319.443C288.898 319.514 289.092 319.549 289.307 319.549C289.576 319.549 289.84 319.5 290.098 319.402C290.355 319.301 290.576 319.135 290.76 318.904L291.65 319.982C291.521 320.162 291.34 320.336 291.105 320.504C290.875 320.672 290.596 320.808 290.268 320.914C289.943 321.019 289.58 321.072 289.178 321.072ZM298.6 317.621V319.144H292.535L292.418 317.937L295.793 312.424H297.346L295.664 315.195L294.299 317.621H298.6ZM297.756 312.424V320.955H295.787V312.424H297.756ZM303.439 314.615H305.227V320.726C305.227 321.312 305.094 321.807 304.828 322.209C304.562 322.615 304.189 322.924 303.709 323.135C303.232 323.346 302.676 323.451 302.039 323.451C301.758 323.451 301.471 323.414 301.178 323.34C300.885 323.269 300.611 323.166 300.357 323.029C300.104 322.892 299.891 322.724 299.719 322.525L300.533 321.359C300.689 321.531 300.887 321.68 301.125 321.805C301.363 321.93 301.645 321.992 301.969 321.992C302.246 321.992 302.479 321.941 302.666 321.84C302.857 321.742 303.002 321.598 303.1 321.406C303.201 321.219 303.252 320.988 303.252 320.715V316.115L303.439 314.615ZM299.285 317.879V317.721C299.285 317.236 299.344 316.797 299.461 316.402C299.578 316.008 299.748 315.668 299.971 315.383C300.193 315.098 300.463 314.879 300.779 314.726C301.096 314.574 301.453 314.498 301.852 314.498C302.277 314.498 302.627 314.582 302.9 314.75C303.178 314.914 303.398 315.144 303.562 315.441C303.73 315.734 303.861 316.08 303.955 316.478C304.049 316.873 304.127 317.297 304.189 317.75V317.92C304.127 318.346 304.039 318.75 303.926 319.133C303.812 319.512 303.666 319.848 303.486 320.141C303.307 320.43 303.08 320.658 302.807 320.826C302.537 320.99 302.215 321.072 301.84 321.072C301.445 321.072 301.09 320.994 300.773 320.838C300.461 320.682 300.193 320.461 299.971 320.176C299.748 319.887 299.578 319.549 299.461 319.162C299.344 318.771 299.285 318.344 299.285 317.879ZM301.254 317.721V317.879C301.254 318.121 301.275 318.344 301.318 318.547C301.365 318.746 301.434 318.922 301.523 319.074C301.617 319.226 301.73 319.344 301.863 319.426C302 319.508 302.16 319.549 302.344 319.549C302.621 319.549 302.846 319.488 303.018 319.367C303.189 319.246 303.312 319.076 303.387 318.857C303.465 318.635 303.498 318.375 303.486 318.078V317.592C303.494 317.338 303.477 317.113 303.434 316.918C303.395 316.719 303.33 316.555 303.24 316.426C303.15 316.293 303.031 316.193 302.883 316.127C302.738 316.057 302.562 316.021 302.355 316.021C302.176 316.021 302.018 316.062 301.881 316.144C301.744 316.226 301.629 316.344 301.535 316.496C301.445 316.648 301.375 316.828 301.324 317.035C301.277 317.242 301.254 317.471 301.254 317.721ZM311.514 319.432V320.955H306.662V319.432H311.514ZM311.455 315.682L307.547 320.955H306.193V319.853L310.102 314.615H311.455V315.682ZM310.811 314.615V316.139H306.311V314.615H310.811ZM314.42 315.969V320.955H312.445V314.615H314.297L314.42 315.969ZM314.186 317.568L313.723 317.58C313.723 317.096 313.779 316.664 313.893 316.285C314.01 315.902 314.174 315.578 314.385 315.312C314.6 315.047 314.854 314.846 315.146 314.709C315.443 314.568 315.773 314.498 316.137 314.498C316.426 314.498 316.689 314.541 316.928 314.627C317.17 314.713 317.379 314.851 317.555 315.043C317.73 315.234 317.865 315.488 317.959 315.805C318.053 316.117 318.1 316.504 318.1 316.965V320.955H316.119V316.959C316.119 316.705 316.084 316.512 316.014 316.379C315.947 316.242 315.85 316.148 315.721 316.098C315.592 316.047 315.434 316.021 315.246 316.021C315.047 316.021 314.879 316.06 314.742 316.139C314.605 316.217 314.496 316.326 314.414 316.467C314.332 316.603 314.273 316.766 314.238 316.953C314.203 317.141 314.186 317.346 314.186 317.568ZM322.441 319.361V316.736C322.441 316.557 322.416 316.404 322.365 316.279C322.318 316.15 322.242 316.051 322.137 315.98C322.031 315.91 321.889 315.875 321.709 315.875C321.564 315.875 321.441 315.9 321.34 315.951C321.238 316.002 321.16 316.078 321.105 316.18C321.055 316.281 321.029 316.41 321.029 316.566H319.061C319.061 316.273 319.125 316.002 319.254 315.752C319.383 315.498 319.568 315.277 319.811 315.09C320.053 314.902 320.342 314.758 320.678 314.656C321.018 314.551 321.396 314.498 321.814 314.498C322.311 314.498 322.754 314.582 323.145 314.75C323.539 314.914 323.85 315.162 324.076 315.494C324.307 315.826 324.422 316.244 324.422 316.748V319.355C324.422 319.769 324.445 320.084 324.492 320.299C324.539 320.51 324.605 320.695 324.691 320.855V320.955H322.711C322.621 320.76 322.553 320.521 322.506 320.24C322.463 319.955 322.441 319.662 322.441 319.361ZM322.676 317.082L322.688 318.137H321.85C321.67 318.137 321.518 318.162 321.393 318.213C321.268 318.264 321.168 318.334 321.094 318.424C321.02 318.51 320.967 318.609 320.936 318.723C320.904 318.832 320.889 318.947 320.889 319.068C320.889 319.189 320.916 319.295 320.971 319.385C321.025 319.474 321.1 319.545 321.193 319.596C321.287 319.642 321.393 319.666 321.51 319.666C321.725 319.666 321.906 319.625 322.055 319.543C322.203 319.461 322.316 319.361 322.395 319.244C322.477 319.123 322.516 319.012 322.512 318.91L322.928 319.719C322.854 319.871 322.768 320.027 322.67 320.187C322.572 320.344 322.451 320.49 322.307 320.627C322.166 320.76 321.992 320.867 321.785 320.949C321.582 321.031 321.334 321.072 321.041 321.072C320.654 321.072 320.299 320.994 319.975 320.838C319.654 320.678 319.396 320.455 319.201 320.17C319.01 319.885 318.914 319.551 318.914 319.168C318.914 318.844 318.973 318.553 319.09 318.295C319.207 318.037 319.385 317.818 319.623 317.639C319.865 317.459 320.172 317.322 320.543 317.228C320.914 317.131 321.354 317.082 321.861 317.082H322.676Z" fill="black"/>
</svg>
