<svg width="100" height="100" viewBox="0 0 100 100" fill="none" xmlns="http://www.w3.org/2000/svg">
<rect width="100" height="100" rx="50" fill="white"/>
<path d="M29.8087 15.7055C31.3903 15.7057 32.673 16.9881 32.673 18.5697C32.6729 19.7437 31.9651 20.7506 30.9542 21.1928V24.2973H37.8282C40.0424 24.2975 41.8378 26.0929 41.838 28.307V38.6186C41.8378 40.8327 40.0424 42.6271 37.8282 42.6273H21.7892C19.5748 42.6273 17.7797 40.8328 17.7794 38.6186V28.307C17.7796 26.0927 19.5748 24.2973 21.7892 24.2973H28.6632V21.1937C27.6519 20.7517 26.9445 19.7439 26.9445 18.5697C26.9445 16.9879 28.2269 15.7055 29.8087 15.7055ZM16.6339 37.1859C15.2104 37.1859 14.056 36.0322 14.0558 34.6088V31.7445C14.0558 30.3209 15.2103 29.1664 16.6339 29.1664V37.1859ZM42.9825 29.1664C44.4062 29.1664 45.5607 30.3209 45.5607 31.7445V34.6088C45.5604 36.0322 44.406 37.1859 42.9825 37.1859V29.1664ZM24.9396 29.7396C23.5161 29.7396 22.3616 30.8933 22.3615 32.3168C22.3615 33.7404 23.516 34.8949 24.9396 34.8949C26.3631 34.8948 27.5167 33.7403 27.5167 32.3168C27.5166 30.8934 26.363 29.7398 24.9396 29.7396ZM34.6769 29.7396C33.2535 29.7398 32.0999 30.8934 32.0997 32.3168C32.0997 33.7403 33.2534 34.8948 34.6769 34.8949C36.1005 34.8949 37.255 33.7404 37.255 32.3168C37.2548 30.8933 36.1004 29.7396 34.6769 29.7396Z" fill="#00334E"/>
<path d="M55.5845 35.1808H57.7329C57.8119 35.1808 57.8763 35.2454 57.8765 35.3243V44.4894C57.8764 44.5684 57.812 44.6329 57.7329 44.6329H52.2915C52.2125 44.6328 52.148 44.5683 52.1479 44.4894V35.3243C52.1481 35.2455 52.2126 35.1809 52.2915 35.1808H54.439V32.8898H55.5845V35.1808ZM74.9175 22.2931C74.9966 22.2931 75.061 22.3576 75.061 22.4366V44.4894C75.061 44.5685 74.9966 44.6329 74.9175 44.6329H69.4761C69.397 44.6329 69.3325 44.5685 69.3325 44.4894V22.4366C69.3325 22.3576 69.397 22.2931 69.4761 22.2931H74.9175ZM64.1772 31.171H66.3257C66.4045 31.1712 66.469 31.2357 66.4692 31.3146V40.7657C66.4692 40.8447 66.4046 40.9091 66.3257 40.9093H64.1772V44.632H63.0317V40.9093H60.8843C60.8052 40.9093 60.7407 40.8448 60.7407 40.7657V31.3146C60.7409 31.2356 60.8053 31.171 60.8843 31.171H63.0317V28.88H64.1772V31.171ZM72.9643 14.005C73.0708 13.9765 73.1686 14.0743 73.1401 14.1808L71.6636 19.6905C71.635 19.797 71.5013 19.833 71.4233 19.755L70.1567 18.4884L61.8286 26.8175C61.4652 27.1809 60.8757 27.1808 60.5122 26.8175L57.7202 24.0265L50.0737 31.4113L50.0024 31.4738C49.6317 31.7658 49.0922 31.7356 48.7573 31.3888C48.4005 31.019 48.4111 30.4294 48.7808 30.0724L57.0864 22.0529L57.1577 21.9913C57.5237 21.7027 58.0545 21.7282 58.3911 22.0646L61.1694 24.8429L68.8403 17.172L67.3901 15.7208C67.3125 15.6429 67.3475 15.5103 67.4536 15.4816L72.9643 14.005Z" fill="#007C54"/>
<path d="M14.0001 47.5202V61.7734H10.5739V47.5202H14.0001ZM18.2291 47.5202V50.1731H6.45255V47.5202H18.2291ZM19.6877 47.5202H25.2383C26.3216 47.5202 27.2647 47.6833 28.0674 48.0096C28.8701 48.3359 29.4868 48.8189 29.9176 49.4584C30.3548 50.098 30.5735 50.8877 30.5735 51.8275C30.5735 52.6432 30.4462 53.3252 30.1917 53.8734C29.9437 54.4216 29.5945 54.8752 29.1442 55.2342C28.7004 55.5866 28.1816 55.877 27.5877 56.1054L26.4717 56.7417H21.8316L21.812 54.0888H25.2285C25.6592 54.0888 26.0149 54.0105 26.2955 53.8539C26.5761 53.6972 26.7882 53.4753 26.9318 53.1882C27.0754 52.8945 27.1472 52.5453 27.1472 52.1407C27.1472 51.7296 27.0721 51.3772 26.922 51.0835C26.7785 50.7898 26.5664 50.5646 26.2857 50.408C26.0051 50.2514 25.6559 50.1731 25.2383 50.1731H23.114V61.7734H19.6877V47.5202ZM27.3723 61.7734L24.2691 55.4691L27.901 55.4495L31.0433 61.6266V61.7734H27.3723ZM38.6203 50.5157L35.2038 61.7734H31.523L36.6918 47.5202H39.0314L38.6203 50.5157ZM41.4298 61.7734L38.0133 50.5157L37.563 47.5202H39.9223L45.1204 61.7734H41.4298ZM41.3123 56.4578V59.1107H34.0878V56.4578H41.3123ZM50.759 61.7734H47.6363L47.6558 59.1303H50.759C51.3986 59.1303 51.937 58.9769 52.3743 58.6702C52.8181 58.3635 53.1542 57.9034 53.3826 57.2899C53.6175 56.6764 53.735 55.9161 53.735 55.009V54.2748C53.735 53.5895 53.6697 52.9924 53.5392 52.4833C53.4152 51.9678 53.226 51.5403 52.9714 51.2009C52.7169 50.8616 52.3971 50.6071 52.0121 50.4374C51.6336 50.2612 51.1996 50.1731 50.7101 50.1731H47.5775V47.5202H50.7101C51.6629 47.5202 52.5374 47.6833 53.3336 48.0096C54.1298 48.3359 54.8184 48.7993 55.3992 49.3997C55.9865 50.0001 56.4401 50.7147 56.7599 51.5436C57.0797 52.3659 57.2396 53.2828 57.2396 54.2944V55.009C57.2396 56.014 57.0797 56.931 56.7599 57.7598C56.4401 58.5886 55.9898 59.3032 55.409 59.9037C54.8281 60.4975 54.1429 60.9576 53.3532 61.284C52.5635 61.6103 51.6988 61.7734 50.759 61.7734ZM49.6039 47.5202V61.7734H46.1776V47.5202H49.6039ZM68.7225 59.1303V61.7734H61.2336V59.1303H68.7225ZM62.4475 47.5202V61.7734H59.0212V47.5202H62.4475ZM67.7533 53.1784V55.7334H61.2336V53.1784H67.7533ZM68.7518 47.5202V50.1731H61.2336V47.5202H68.7518ZM70.1223 47.5202H75.6729C76.7562 47.5202 77.6993 47.6833 78.502 48.0096C79.3047 48.3359 79.9215 48.8189 80.3522 49.4584C80.7894 50.098 81.0081 50.8877 81.0081 51.8275C81.0081 52.6432 80.8808 53.3252 80.6263 53.8734C80.3783 54.4216 80.0291 54.8752 79.5788 55.2342C79.135 55.5866 78.6162 55.877 78.0223 56.1054L76.9063 56.7417H72.2662L72.2466 54.0888H75.6631C76.0938 54.0888 76.4495 54.0105 76.7301 53.8539C77.0108 53.6972 77.2229 53.4753 77.3664 53.1882C77.51 52.8945 77.5818 52.5453 77.5818 52.1407C77.5818 51.7296 77.5068 51.3772 77.3566 51.0835C77.2131 50.7898 77.001 50.5646 76.7203 50.408C76.4397 50.2514 76.0906 50.1731 75.6729 50.1731H73.5486V61.7734H70.1223V47.5202ZM77.807 61.7734L74.7037 55.4691L78.3356 55.4495L81.478 61.6266V61.7734H77.807ZM90.2981 57.985C90.2981 57.7631 90.2655 57.564 90.2002 57.3878C90.135 57.2051 90.0175 57.0354 89.8478 56.8788C89.6781 56.7221 89.4302 56.5655 89.1038 56.4089C88.7841 56.2457 88.3631 56.076 87.841 55.8998C87.221 55.691 86.6239 55.456 86.0496 55.195C85.4753 54.9274 84.963 54.6174 84.5126 54.265C84.0623 53.9061 83.7034 53.4884 83.4358 53.012C83.1748 52.529 83.0442 51.9678 83.0442 51.3282C83.0442 50.7147 83.178 50.1633 83.4456 49.6738C83.7197 49.1778 84.0982 48.7569 84.5812 48.411C85.0706 48.0586 85.6449 47.791 86.3041 47.6083C86.9632 47.419 87.6844 47.3244 88.4675 47.3244C89.4987 47.3244 90.4091 47.5071 91.1988 47.8726C91.9884 48.2315 92.6052 48.7438 93.0489 49.4095C93.4992 50.0686 93.7244 50.8485 93.7244 51.7492H90.3177C90.3177 51.3902 90.2459 51.0737 90.1024 50.7996C89.9588 50.5255 89.7434 50.3101 89.4563 50.1535C89.1756 49.9969 88.82 49.9185 88.3892 49.9185C87.965 49.9185 87.6093 49.9838 87.3222 50.1143C87.0416 50.2449 86.8262 50.4211 86.6761 50.643C86.5325 50.8583 86.4607 51.0965 86.4607 51.3576C86.4607 51.5729 86.5195 51.7687 86.6369 51.9449C86.7609 52.1146 86.9306 52.2745 87.146 52.4246C87.3679 52.5747 87.6354 52.7183 87.9487 52.8553C88.2685 52.9924 88.6242 53.1262 89.0157 53.2567C89.7663 53.4982 90.4319 53.769 91.0128 54.0692C91.6001 54.3629 92.0928 54.699 92.4909 55.0775C92.8956 55.4495 93.2023 55.8737 93.4111 56.3501C93.62 56.8265 93.7244 57.365 93.7244 57.9654C93.7244 58.6049 93.6004 59.1727 93.3524 59.6687C93.1109 60.1647 92.7618 60.5857 92.305 60.9315C91.8481 61.2709 91.2999 61.5287 90.6603 61.7049C90.0208 61.8811 89.3094 61.9692 88.5263 61.9692C87.8019 61.9692 87.0872 61.8778 86.3824 61.6951C85.6841 61.5058 85.0511 61.2187 84.4833 60.8336C83.9155 60.4421 83.4619 59.9428 83.1226 59.3359C82.7832 58.7224 82.6135 57.9947 82.6135 57.1529H86.0594C86.0594 57.5705 86.1116 57.923 86.216 58.2101C86.3269 58.4973 86.4868 58.7289 86.6957 58.9051C86.9045 59.0748 87.159 59.1988 87.4592 59.2771C87.766 59.3489 88.1216 59.3848 88.5263 59.3848C88.9505 59.3848 89.2898 59.3228 89.5444 59.1988C89.8054 59.0683 89.9947 58.8986 90.1121 58.6898C90.2361 58.4744 90.2981 58.2395 90.2981 57.985Z" fill="#00334E"/>
<path d="M38.9491 71.7949V74.438H31.7637V71.7949H38.9491ZM32.8993 66.1367V80.3899H29.473V66.1367H32.8993ZM41.2594 66.1367V80.3899H37.8331V66.1367H41.2594ZM51.0291 66.1367H54.4652V75.4757C54.4652 76.5851 54.2335 77.5217 53.7701 78.2852C53.3133 79.0488 52.6705 79.6231 51.8416 80.0081C51.0193 80.3932 50.0502 80.5857 48.9342 80.5857C47.8313 80.5857 46.8621 80.3932 46.0268 80.0081C45.1914 79.6231 44.5388 79.0488 44.0689 78.2852C43.599 77.5217 43.3641 76.5851 43.3641 75.4757V66.1367H46.8099V75.4757C46.8099 76.063 46.8915 76.5395 47.0547 76.9049C47.2178 77.2704 47.456 77.5347 47.7693 77.6979C48.0891 77.861 48.4774 77.9426 48.9342 77.9426C49.391 77.9426 49.7761 77.861 50.0894 77.6979C50.4026 77.5347 50.6376 77.2704 50.7942 76.9049C50.9508 76.5395 51.0291 76.063 51.0291 75.4757V66.1367ZM62.3652 74.3303H58.7529L58.7333 72.0788H61.6603C62.1824 72.0788 62.6001 72.0201 62.9134 71.9026C63.2266 71.7786 63.455 71.5991 63.5986 71.3642C63.7422 71.1292 63.814 70.8355 63.814 70.4831C63.814 70.0785 63.7389 69.7522 63.5888 69.5042C63.4453 69.2562 63.2136 69.0767 62.8938 68.9658C62.5805 68.8483 62.1759 68.7896 61.6799 68.7896H60.0353V80.3899H56.609V66.1367H61.6799C62.5544 66.1367 63.3311 66.2182 64.0098 66.3814C64.695 66.538 65.2791 66.7795 65.7621 67.1058C66.245 67.4321 66.6105 67.8433 66.8585 68.3393C67.113 68.8287 67.2403 69.4063 67.2403 70.072C67.2403 70.6528 67.1163 71.1977 66.8683 71.7068C66.6268 72.2158 66.2189 72.6303 65.6446 72.95C65.0703 73.2633 64.2904 73.4265 63.3049 73.4395L62.3652 74.3303ZM62.2281 80.3899H57.9208L59.0857 77.7468H62.2281C62.685 77.7468 63.0504 77.675 63.3245 77.5314C63.6052 77.3813 63.8075 77.1856 63.9315 76.9441C64.0555 76.6961 64.1175 76.422 64.1175 76.1218C64.1175 75.7563 64.0587 75.4398 63.9413 75.1722C63.8238 74.9046 63.6378 74.6991 63.3833 74.5555C63.1287 74.4054 62.7894 74.3303 62.3652 74.3303H59.5067L59.5263 72.0788H62.933L63.7357 72.9794C64.682 72.9402 65.4292 73.074 65.9774 73.3808C66.5322 73.6875 66.927 74.0921 67.1619 74.5946C67.4034 75.0972 67.5241 75.6225 67.5241 76.1707C67.5241 77.104 67.3251 77.8839 66.927 78.5104C66.5354 79.1369 65.9448 79.6068 65.1551 79.92C64.3655 80.2333 63.3898 80.3899 62.2281 80.3899Z" fill="#00334E"/>
</svg>
